<svg width="32" height="32" viewBox="0 0 32 32" fill="none" xmlns="http://www.w3.org/2000/svg">
<path fill-rule="evenodd" clip-rule="evenodd" d="M9.7929 5.356C13.918 4.89875 18.0811 4.89875 22.2062 5.356C24.4902 5.612 26.3329 7.41067 26.6009 9.70267C27.0902 13.8866 27.0902 18.1134 26.6009 22.2973C26.3329 24.5893 24.4902 26.388 22.2062 26.644C18.0811 27.1013 13.918 27.1013 9.7929 26.644C7.5089 26.388 5.66623 24.5893 5.39823 22.2973C4.90892 18.1138 4.90892 13.8875 5.39823 9.704C5.53379 8.59049 6.0414 7.55539 6.83881 6.76646C7.63621 5.97752 8.67667 5.48099 9.79156 5.35733M15.9996 9.34267C16.2648 9.34267 16.5191 9.44802 16.7067 9.63556C16.8942 9.82309 16.9996 10.0774 16.9996 10.3427V15H21.6569C21.9221 15 22.1765 15.1054 22.364 15.2929C22.5515 15.4804 22.6569 15.7348 22.6569 16C22.6569 16.2652 22.5515 16.5196 22.364 16.7071C22.1765 16.8946 21.9221 17 21.6569 17H16.9996V21.6573C16.9996 21.9225 16.8942 22.1769 16.7067 22.3644C16.5191 22.552 16.2648 22.6573 15.9996 22.6573C15.7343 22.6573 15.48 22.552 15.2925 22.3644C15.1049 22.1769 14.9996 21.9225 14.9996 21.6573V17H10.3422C10.077 17 9.82266 16.8946 9.63512 16.7071C9.44759 16.5196 9.34223 16.2652 9.34223 16C9.34223 15.7348 9.44759 15.4804 9.63512 15.2929C9.82266 15.1054 10.077 15 10.3422 15H14.9996V10.3427C14.9996 10.0774 15.1049 9.82309 15.2925 9.63556C15.48 9.44802 15.7343 9.34267 15.9996 9.34267Z" fill="#D9D9D9"/>
</svg>
