<svg width="40" height="40" viewBox="0 0 40 40" fill="none" xmlns="http://www.w3.org/2000/svg">
<path d="M5.98826 15.2869C6.85898 15.2869 7.32755 14.8012 7.32755 13.9141V9.96406C7.32755 8.22263 8.26469 7.33549 9.93898 7.33549H13.9904C14.8611 7.33549 15.3461 6.84977 15.3461 5.97906C15.3461 5.12549 14.8604 4.63977 13.9904 4.63977H9.88898C6.40684 4.63977 4.63184 6.36406 4.63184 9.81263V13.9148C4.63184 14.8019 5.11755 15.2869 5.98826 15.2869ZM34.0126 15.2869C34.8997 15.2869 35.369 14.8012 35.369 13.9141V9.81263C35.369 6.36406 33.6275 4.63977 30.1118 4.63977H26.0268C25.1397 4.63977 24.6547 5.12549 24.6547 5.97906C24.6547 6.84977 25.1404 7.33549 26.0268 7.33549H30.0783C31.719 7.33549 32.6733 8.22263 32.6733 9.96406V13.9141C32.6733 14.8019 33.159 15.2869 34.0126 15.2869ZM19.2804 18.5512V12.7091C19.2804 12.3076 18.9626 11.9726 18.544 11.9726H12.7183C12.2997 11.9726 11.9811 12.3069 11.9811 12.7091V18.5519C11.9811 18.9533 12.2997 19.2719 12.7183 19.2719H18.544C18.9626 19.2719 19.2804 18.9526 19.2804 18.5512ZM22.1768 13.4298H26.5625V17.8155H22.1768V13.4298ZM25.2911 16.5441V14.7183H23.4661V16.5433L25.2911 16.5441ZM16.5518 16.5441V14.7183H14.7104V16.5433L16.5518 16.5441ZM13.4376 22.1855H17.824V26.5712H13.4383L13.4376 22.1855ZM27.8018 22.7541V20.9298H25.9768V22.7548L27.8018 22.7541ZM22.7626 22.7541V20.9298H20.9375V22.7548L22.7626 22.7541ZM16.5518 25.2826V23.4569H14.7104V25.2812L16.5518 25.2826ZM25.2904 25.2826V23.4569H23.449V25.2812L25.2904 25.2826ZM26.0268 35.3605H30.1126C33.6276 35.3605 35.369 33.6191 35.369 30.1705V26.0855C35.369 25.1976 34.8833 24.7126 34.0126 24.7126C33.1418 24.7126 32.6733 25.1983 32.6733 26.0855V30.0355C32.6733 31.7769 31.719 32.6641 30.0783 32.6641H26.0268C25.1397 32.6641 24.6547 33.1498 24.6547 34.0205C24.6547 34.8741 25.1404 35.3605 26.0268 35.3605ZM9.88898 35.3598H13.9904C14.8611 35.3598 15.3461 34.8741 15.3461 34.0205C15.3461 33.1498 14.8604 32.6648 13.9904 32.6648H9.93898C8.26469 32.6648 7.32755 31.7769 7.32755 30.0362V26.0855C7.32755 25.1976 6.84184 24.7126 5.98826 24.7126C5.10112 24.7126 4.63184 25.1983 4.63184 26.0855V30.1698C4.63184 33.6355 6.40684 35.3598 9.88898 35.3598ZM22.7626 27.8098V25.9848H20.9375V27.8098H22.7626ZM27.8018 27.8098V25.9848H25.9768V27.8098H27.8018ZM28.0197 18.5519V12.7091C28.0197 12.3076 27.7011 11.9726 27.2825 11.9726H21.4576C21.039 11.9726 20.7211 12.3069 20.7211 12.7091V18.5519C20.7211 18.9533 21.039 19.2719 21.4568 19.2719H27.2833C27.7018 19.2719 28.0197 18.9533 28.0197 18.5519ZM13.4376 13.4283H17.824V17.8141H13.4383L13.4376 13.4283ZM19.2804 27.2898V21.4469C19.2804 21.0455 18.9626 20.7276 18.544 20.7276H12.7183C12.2997 20.7276 11.9811 21.0455 11.9811 21.4469V27.2898C11.9811 27.6919 12.2997 28.0262 12.7183 28.0262H18.544C18.9626 28.0262 19.2804 27.6919 19.2804 27.2898Z" fill="#333333"/>
</svg>
