<svg width="40" height="40" viewBox="0 0 40 40" fill="none" xmlns="http://www.w3.org/2000/svg">
<path d="M2.12793 11.0936V34.5404C2.12793 35.5154 3.03418 36.1686 4.10293 36.9186C5.20605 37.6936 5.81543 37.6217 6.34355 37.6217L36.2998 37.8154C37.4779 37.8154 37.8717 37.0123 37.8717 36.1467V11.0936H2.12793Z" fill="#BDBDBD"/>
<path opacity="0.29" d="M37.8717 36.1436L35.2842 33.4842V11.0936L37.8717 12.6623V36.1436Z" fill="url(#paint0_linear_1_4632)"/>
<path d="M37.8715 12.881L35.8527 11.6154L32.6934 4.37476H34.3934C37.409 4.37476 37.8715 6.11538 37.8715 6.70913V12.881Z" fill="#C62828"/>
<path d="M3.04688 11.3529V33.8935C3.04688 34.7373 3.73125 35.4185 4.57187 35.4185H34.2125C35.0562 35.4185 35.8437 34.7904 35.8437 33.9466V11.3529H3.04688Z" fill="#FAFAFA"/>
<path d="M35.8529 11.6154H2.12793V5.79668C2.12793 5.0123 2.93105 4.3748 3.9248 4.3748H34.1092C35.1061 4.3748 35.9123 5.01543 35.9061 5.80605L35.8529 11.6154Z" fill="#F44336"/>
<path d="M32.4096 36.4437C31.4158 36.5655 30.4221 36.6155 29.4283 36.703C28.4346 36.7655 27.4408 36.8218 26.4471 36.8562C25.4533 36.9062 24.4596 36.9155 23.4658 36.9436L20.4846 36.9718L17.5033 36.9436C16.5096 36.9155 15.5158 36.903 14.5221 36.8562C13.5283 36.8218 12.5346 36.7655 11.5408 36.703C10.5471 36.6155 9.55332 36.5624 8.55957 36.4437V36.3811L20.4814 36.3499L32.4033 36.3811V36.4437H32.4096Z" fill="#757575"/>
<path d="M13.2686 14.0873V17.8748H5.0498V33.2654H21.3467V29.431H33.4529V14.0873H13.2686Z" fill="#B3E5FC"/>
<path d="M5.97188 7.21855C6.48274 7.21855 6.89687 6.75684 6.89687 6.1873C6.89687 5.61776 6.48274 5.15605 5.97188 5.15605C5.46101 5.15605 5.04688 5.61776 5.04688 6.1873C5.04688 6.75684 5.46101 7.21855 5.97188 7.21855Z" fill="#AF1E1E"/>
<path d="M6.40039 5.33735C6.27227 5.0686 6.18477 4.73423 6.18477 4.37485C6.18477 3.54048 6.61914 2.83423 7.13477 2.83423C7.65039 2.83423 8.08477 3.54048 8.08477 4.37485H9.48477C9.48477 2.66548 8.43164 1.27173 7.13789 1.27173C5.84414 1.27173 4.79102 2.66235 4.79102 4.37485C4.79102 4.98423 4.92539 5.54985 5.15352 6.0311C5.36289 6.46548 5.80977 6.65923 6.20664 6.44985C6.53789 6.2686 6.58164 5.71235 6.40039 5.33735Z" fill="#94D1E0"/>
<path d="M9.48398 4.37471C9.48398 3.32783 9.08711 2.40283 8.48711 1.84033C8.49336 1.85908 8.66523 2.30596 8.42148 2.73408C8.17461 3.17158 7.66211 3.10283 7.66211 3.10283C7.91523 3.38408 8.08398 3.85283 8.08398 4.37471H9.48398Z" fill="#2F7889"/>
<path d="M11.1223 7.21851C11.6331 7.21851 12.0473 6.7568 12.0473 6.18726C12.0473 5.61771 11.6331 5.15601 11.1223 5.15601C10.6114 5.15601 10.1973 5.61771 10.1973 6.18726C10.1973 6.7568 10.6114 7.21851 11.1223 7.21851Z" fill="#AF1E1E"/>
<path d="M11.5498 5.3374C11.4217 5.06865 11.3342 4.73427 11.3342 4.3749C11.3342 3.54052 11.7686 2.83427 12.2842 2.83427C12.7998 2.83427 13.2342 3.54052 13.2342 4.3749H14.6342C14.6342 2.66552 13.5811 1.27177 12.2873 1.27177C10.9936 1.27177 9.94043 2.6624 9.94043 4.3749C9.94043 4.98427 10.0748 5.5499 10.3029 6.03115C10.5123 6.46552 10.9592 6.65927 11.3561 6.4499C11.6873 6.26865 11.7311 5.7124 11.5498 5.3374Z" fill="#94D1E0"/>
<path d="M13.6375 1.84035C13.6437 1.8591 13.8156 2.30598 13.5719 2.7341C13.325 3.16848 12.8125 3.10285 12.8125 3.10285C13.0656 3.3841 13.2344 3.85285 13.2344 4.37473H14.6375C14.6375 3.32785 14.2375 2.40285 13.6375 1.84035Z" fill="#2F7889"/>
<path d="M16.2688 7.21855C16.7796 7.21855 17.1938 6.75684 17.1938 6.1873C17.1938 5.61776 16.7796 5.15605 16.2688 5.15605C15.7579 5.15605 15.3438 5.61776 15.3438 6.1873C15.3438 6.75684 15.7579 7.21855 16.2688 7.21855Z" fill="#AF1E1E"/>
<path d="M16.7002 5.3374C16.5721 5.06865 16.4846 4.73427 16.4846 4.3749C16.4846 3.54052 16.9189 2.83427 17.4346 2.83427C17.9502 2.83427 18.3846 3.54052 18.3846 4.3749H19.7846C19.7846 2.66552 18.7314 1.27177 17.4377 1.27177C16.1439 1.27177 15.0908 2.6624 15.0908 4.3749C15.0908 4.98427 15.2252 5.5499 15.4533 6.03115C15.6627 6.46552 16.1096 6.65927 16.5064 6.4499C16.8377 6.26865 16.8814 5.7124 16.7002 5.3374Z" fill="#94D1E0"/>
<path d="M18.784 1.84033C18.7902 1.85908 18.9621 2.30596 18.7184 2.73408C18.4715 3.17158 17.959 3.10283 17.959 3.10283C18.2121 3.38408 18.3809 3.85283 18.3809 4.37471H19.7902C19.7934 3.32783 19.3871 2.40283 18.784 1.84033Z" fill="#2F7889"/>
<path d="M21.4191 7.21851C21.93 7.21851 22.3441 6.7568 22.3441 6.18726C22.3441 5.61771 21.93 5.15601 21.4191 5.15601C20.9083 5.15601 20.4941 5.61771 20.4941 6.18726C20.4941 6.7568 20.9083 7.21851 21.4191 7.21851Z" fill="#AF1E1E"/>
<path d="M21.8496 5.33735C21.7215 5.0686 21.634 4.73423 21.634 4.37485C21.634 3.54048 22.0684 2.83423 22.584 2.83423C23.0996 2.83423 23.534 3.54048 23.534 4.37485H24.934C24.934 2.66548 23.8809 1.27173 22.5871 1.27173C21.2934 1.27173 20.2402 2.66235 20.2402 4.37485C20.2402 4.98423 20.3746 5.54985 20.6027 6.0311C20.8121 6.46548 21.259 6.65923 21.6559 6.44985C21.9871 6.2686 22.0277 5.71235 21.8496 5.33735Z" fill="#94D1E0"/>
<path d="M23.9344 1.84035C23.9406 1.8591 24.1125 2.30598 23.8688 2.7341C23.6219 3.1716 23.1094 3.10285 23.1094 3.10285C23.3625 3.3841 23.5313 3.85285 23.5313 4.37473H24.9438C24.9469 3.32785 24.5375 2.40285 23.9344 1.84035Z" fill="#2F7889"/>
<path d="M26.5686 7.21855C27.0794 7.21855 27.4936 6.75684 27.4936 6.1873C27.4936 5.61776 27.0794 5.15605 26.5686 5.15605C26.0577 5.15605 25.6436 5.61776 25.6436 6.1873C25.6436 6.75684 26.0577 7.21855 26.5686 7.21855Z" fill="#AF1E1E"/>
<path d="M26.9971 5.3374C26.8689 5.06865 26.7814 4.73427 26.7814 4.3749C26.7814 3.54052 27.2158 2.83427 27.7314 2.83427C28.2471 2.83427 28.6814 3.54052 28.6814 4.3749H30.0814C30.0814 2.66552 29.0283 1.27177 27.7346 1.27177C26.4408 1.27177 25.3877 2.6624 25.3877 4.3749C25.3877 4.98427 25.5221 5.5499 25.7502 6.03115C25.9596 6.46552 26.4064 6.65927 26.8033 6.4499C27.1346 6.26865 27.1783 5.7124 26.9971 5.3374Z" fill="#94D1E0"/>
<path d="M29.0848 1.84033C29.091 1.85908 29.2629 2.30596 29.0191 2.73408C28.7723 3.17158 28.2598 3.10283 28.2598 3.10283C28.5129 3.38408 28.6816 3.85283 28.6816 4.37471H30.1004C30.1004 3.32783 29.6848 2.40283 29.0848 1.84033Z" fill="#2F7889"/>
<path d="M31.7189 7.21855C32.2298 7.21855 32.6439 6.75684 32.6439 6.1873C32.6439 5.61776 32.2298 5.15605 31.7189 5.15605C31.2081 5.15605 30.7939 5.61776 30.7939 6.1873C30.7939 6.75684 31.2081 7.21855 31.7189 7.21855Z" fill="#AF1E1E"/>
<path d="M32.1465 5.33735C32.0184 5.0686 31.9309 4.73423 31.9309 4.37485C31.9309 3.54048 32.3652 2.83423 32.8809 2.83423C33.3965 2.83423 33.8309 3.54048 33.8309 4.37485H35.2309C35.2309 2.66548 34.1777 1.27173 32.884 1.27173C31.5902 1.27173 30.5371 2.66235 30.5371 4.37485C30.5371 4.98423 30.6715 5.54985 30.8996 6.0311C31.109 6.46548 31.5559 6.65923 31.9527 6.44985C32.284 6.2686 32.3277 5.71235 32.1465 5.33735Z" fill="#94D1E0"/>
<path d="M35.25 4.43111C35.2031 3.17486 34.7969 2.36861 34.2312 1.84361C34.2375 1.86236 34.4094 2.30923 34.1656 2.73736C33.9188 3.17486 33.4062 3.1061 33.4062 3.1061C33.6594 3.38735 33.7844 3.85611 33.7844 4.37798H34.2625C34.6594 4.37173 35.25 4.43111 35.25 4.43111Z" fill="#2F7889"/>
<path d="M9.24043 14.0997V33.2654M13.2748 14.0997V33.2654M17.3123 14.0997V33.2654M21.3467 14.0997V33.2654M25.3811 14.0997V33.2654M29.4186 14.0997V33.2654M5.20605 29.431H33.4529M5.20605 25.5997H33.4529M5.20605 21.7654H33.4529M5.20605 17.9341H33.4529M5.20605 14.0997V33.2654H33.4529V14.0997H5.20605Z" stroke="#1E88E5" stroke-width="0.122492" stroke-miterlimit="10" stroke-linecap="square"/>
<path d="M32.4006 15.4312C32.618 15.4312 32.7943 15.2549 32.7943 15.0375C32.7943 14.82 32.618 14.6437 32.4006 14.6437C32.1831 14.6437 32.0068 14.82 32.0068 15.0375C32.0068 15.2549 32.1831 15.4312 32.4006 15.4312Z" fill="#1E88E5"/>
<path d="M28.3439 15.4312C28.5614 15.4312 28.7377 15.2549 28.7377 15.0375C28.7377 14.82 28.5614 14.6437 28.3439 14.6437C28.1265 14.6437 27.9502 14.82 27.9502 15.0375C27.9502 15.2549 28.1265 15.4312 28.3439 15.4312Z" fill="#1E88E5"/>
<path d="M24.2883 15.4312C24.5057 15.4312 24.682 15.2549 24.682 15.0374C24.682 14.82 24.5057 14.6437 24.2883 14.6437C24.0708 14.6437 23.8945 14.82 23.8945 15.0374C23.8945 15.2549 24.0708 15.4312 24.2883 15.4312Z" fill="#1E88E5"/>
<path d="M20.2287 15.4312C20.4462 15.4312 20.6225 15.2549 20.6225 15.0375C20.6225 14.82 20.4462 14.6437 20.2287 14.6437C20.0112 14.6437 19.835 14.82 19.835 15.0375C19.835 15.2549 20.0112 15.4312 20.2287 15.4312Z" fill="#1E88E5"/>
<path d="M16.1721 15.4312C16.3895 15.4312 16.5658 15.2549 16.5658 15.0375C16.5658 14.82 16.3895 14.6437 16.1721 14.6437C15.9546 14.6437 15.7783 14.82 15.7783 15.0375C15.7783 15.2549 15.9546 15.4312 16.1721 15.4312Z" fill="#1E88E5"/>
<path d="M12.1164 15.4312C12.3339 15.4312 12.5102 15.2549 12.5102 15.0374C12.5102 14.82 12.3339 14.6437 12.1164 14.6437C11.8989 14.6437 11.7227 14.82 11.7227 15.0374C11.7227 15.2549 11.8989 15.4312 12.1164 15.4312Z" fill="#1E88E5"/>
<path d="M8.05977 15.4312C8.27723 15.4312 8.45352 15.2549 8.45352 15.0374C8.45352 14.82 8.27723 14.6437 8.05977 14.6437C7.8423 14.6437 7.66602 14.82 7.66602 15.0374C7.66602 15.2549 7.8423 15.4312 8.05977 15.4312Z" fill="#1E88E5"/>
<path d="M32.4006 19.2657C32.618 19.2657 32.7943 19.0894 32.7943 18.8719C32.7943 18.6545 32.618 18.4782 32.4006 18.4782C32.1831 18.4782 32.0068 18.6545 32.0068 18.8719C32.0068 19.0894 32.1831 19.2657 32.4006 19.2657Z" fill="#1E88E5"/>
<path d="M28.3439 19.2657C28.5614 19.2657 28.7377 19.0894 28.7377 18.8719C28.7377 18.6545 28.5614 18.4782 28.3439 18.4782C28.1265 18.4782 27.9502 18.6545 27.9502 18.8719C27.9502 19.0894 28.1265 19.2657 28.3439 19.2657Z" fill="#1E88E5"/>
<path d="M24.2883 19.2656C24.5057 19.2656 24.682 19.0894 24.682 18.8719C24.682 18.6544 24.5057 18.4781 24.2883 18.4781C24.0708 18.4781 23.8945 18.6544 23.8945 18.8719C23.8945 19.0894 24.0708 19.2656 24.2883 19.2656Z" fill="#1E88E5"/>
<path d="M20.2287 19.2657C20.4462 19.2657 20.6225 19.0894 20.6225 18.8719C20.6225 18.6545 20.4462 18.4782 20.2287 18.4782C20.0112 18.4782 19.835 18.6545 19.835 18.8719C19.835 19.0894 20.0112 19.2657 20.2287 19.2657Z" fill="#1E88E5"/>
<path d="M16.1721 19.2657C16.3895 19.2657 16.5658 19.0894 16.5658 18.8719C16.5658 18.6545 16.3895 18.4782 16.1721 18.4782C15.9546 18.4782 15.7783 18.6545 15.7783 18.8719C15.7783 19.0894 15.9546 19.2657 16.1721 19.2657Z" fill="#1E88E5"/>
<path d="M12.1164 19.2656C12.3339 19.2656 12.5102 19.0894 12.5102 18.8719C12.5102 18.6544 12.3339 18.4781 12.1164 18.4781C11.8989 18.4781 11.7227 18.6544 11.7227 18.8719C11.7227 19.0894 11.8989 19.2656 12.1164 19.2656Z" fill="#1E88E5"/>
<path d="M8.05977 19.2655C8.27723 19.2655 8.45352 19.0892 8.45352 18.8718C8.45352 18.6543 8.27723 18.478 8.05977 18.478C7.8423 18.478 7.66602 18.6543 7.66602 18.8718C7.66602 19.0892 7.8423 19.2655 8.05977 19.2655Z" fill="#1E88E5"/>
<path d="M32.4006 23.0965C32.618 23.0965 32.7943 22.9202 32.7943 22.7028C32.7943 22.4853 32.618 22.309 32.4006 22.309C32.1831 22.309 32.0068 22.4853 32.0068 22.7028C32.0068 22.9202 32.1831 23.0965 32.4006 23.0965Z" fill="#1E88E5"/>
<path d="M28.3439 23.0965C28.5614 23.0965 28.7377 22.9202 28.7377 22.7028C28.7377 22.4853 28.5614 22.309 28.3439 22.309C28.1265 22.309 27.9502 22.4853 27.9502 22.7028C27.9502 22.9202 28.1265 23.0965 28.3439 23.0965Z" fill="#1E88E5"/>
<path d="M24.2883 23.0965C24.5057 23.0965 24.682 22.9202 24.682 22.7027C24.682 22.4852 24.5057 22.309 24.2883 22.309C24.0708 22.309 23.8945 22.4852 23.8945 22.7027C23.8945 22.9202 24.0708 23.0965 24.2883 23.0965Z" fill="#1E88E5"/>
<path d="M20.2287 23.0965C20.4462 23.0965 20.6225 22.9202 20.6225 22.7028C20.6225 22.4853 20.4462 22.309 20.2287 22.309C20.0112 22.309 19.835 22.4853 19.835 22.7028C19.835 22.9202 20.0112 23.0965 20.2287 23.0965Z" fill="#1E88E5"/>
<path d="M16.1721 23.0965C16.3895 23.0965 16.5658 22.9202 16.5658 22.7028C16.5658 22.4853 16.3895 22.309 16.1721 22.309C15.9546 22.309 15.7783 22.4853 15.7783 22.7028C15.7783 22.9202 15.9546 23.0965 16.1721 23.0965Z" fill="#1E88E5"/>
<path d="M12.1164 23.0965C12.3339 23.0965 12.5102 22.9202 12.5102 22.7027C12.5102 22.4852 12.3339 22.309 12.1164 22.309C11.8989 22.309 11.7227 22.4852 11.7227 22.7027C11.7227 22.9202 11.8989 23.0965 12.1164 23.0965Z" fill="#1E88E5"/>
<path d="M8.05977 23.0966C8.27723 23.0966 8.45352 22.9203 8.45352 22.7028C8.45352 22.4854 8.27723 22.3091 8.05977 22.3091C7.8423 22.3091 7.66602 22.4854 7.66602 22.7028C7.66602 22.9203 7.8423 23.0966 8.05977 23.0966Z" fill="#1E88E5"/>
<path d="M32.4006 30.7624C32.618 30.7624 32.7943 30.5861 32.7943 30.3687C32.7943 30.1512 32.618 29.9749 32.4006 29.9749C32.1831 29.9749 32.0068 30.1512 32.0068 30.3687C32.0068 30.5861 32.1831 30.7624 32.4006 30.7624Z" fill="#1E88E5"/>
<path d="M28.3439 30.7624C28.5614 30.7624 28.7377 30.5861 28.7377 30.3687C28.7377 30.1512 28.5614 29.9749 28.3439 29.9749C28.1265 29.9749 27.9502 30.1512 27.9502 30.3687C27.9502 30.5861 28.1265 30.7624 28.3439 30.7624Z" fill="#1E88E5"/>
<path d="M24.2883 30.7625C24.5057 30.7625 24.682 30.5862 24.682 30.3687C24.682 30.1513 24.5057 29.975 24.2883 29.975C24.0708 29.975 23.8945 30.1513 23.8945 30.3687C23.8945 30.5862 24.0708 30.7625 24.2883 30.7625Z" fill="#1E88E5"/>
<path d="M20.2287 30.7624C20.4462 30.7624 20.6225 30.5861 20.6225 30.3687C20.6225 30.1512 20.4462 29.9749 20.2287 29.9749C20.0112 29.9749 19.835 30.1512 19.835 30.3687C19.835 30.5861 20.0112 30.7624 20.2287 30.7624Z" fill="#1E88E5"/>
<path d="M16.1721 30.7624C16.3895 30.7624 16.5658 30.5861 16.5658 30.3687C16.5658 30.1512 16.3895 29.9749 16.1721 29.9749C15.9546 29.9749 15.7783 30.1512 15.7783 30.3687C15.7783 30.5861 15.9546 30.7624 16.1721 30.7624Z" fill="#1E88E5"/>
<path d="M12.1164 30.7625C12.3339 30.7625 12.5102 30.5862 12.5102 30.3687C12.5102 30.1513 12.3339 29.975 12.1164 29.975C11.8989 29.975 11.7227 30.1513 11.7227 30.3687C11.7227 30.5862 11.8989 30.7625 12.1164 30.7625Z" fill="#1E88E5"/>
<path d="M8.05977 30.7624C8.27723 30.7624 8.45352 30.5861 8.45352 30.3686C8.45352 30.1511 8.27723 29.9749 8.05977 29.9749C7.8423 29.9749 7.66602 30.1511 7.66602 30.3686C7.66602 30.5861 7.8423 30.7624 8.05977 30.7624Z" fill="#1E88E5"/>
<path d="M32.4006 26.931C32.618 26.931 32.7943 26.7547 32.7943 26.5372C32.7943 26.3198 32.618 26.1435 32.4006 26.1435C32.1831 26.1435 32.0068 26.3198 32.0068 26.5372C32.0068 26.7547 32.1831 26.931 32.4006 26.931Z" fill="#1E88E5"/>
<path d="M28.3439 26.931C28.5614 26.931 28.7377 26.7547 28.7377 26.5372C28.7377 26.3198 28.5614 26.1435 28.3439 26.1435C28.1265 26.1435 27.9502 26.3198 27.9502 26.5372C27.9502 26.7547 28.1265 26.931 28.3439 26.931Z" fill="#1E88E5"/>
<path d="M24.2883 26.9309C24.5057 26.9309 24.682 26.7546 24.682 26.5372C24.682 26.3197 24.5057 26.1434 24.2883 26.1434C24.0708 26.1434 23.8945 26.3197 23.8945 26.5372C23.8945 26.7546 24.0708 26.9309 24.2883 26.9309Z" fill="#1E88E5"/>
<path d="M20.2287 26.931C20.4462 26.931 20.6225 26.7547 20.6225 26.5372C20.6225 26.3198 20.4462 26.1435 20.2287 26.1435C20.0112 26.1435 19.835 26.3198 19.835 26.5372C19.835 26.7547 20.0112 26.931 20.2287 26.931Z" fill="#1E88E5"/>
<path d="M16.1721 26.931C16.3895 26.931 16.5658 26.7547 16.5658 26.5372C16.5658 26.3198 16.3895 26.1435 16.1721 26.1435C15.9546 26.1435 15.7783 26.3198 15.7783 26.5372C15.7783 26.7547 15.9546 26.931 16.1721 26.931Z" fill="#1E88E5"/>
<path d="M12.1164 26.9309C12.3339 26.9309 12.5102 26.7546 12.5102 26.5372C12.5102 26.3197 12.3339 26.1434 12.1164 26.1434C11.8989 26.1434 11.7227 26.3197 11.7227 26.5372C11.7227 26.7546 11.8989 26.9309 12.1164 26.9309Z" fill="#1E88E5"/>
<path d="M8.05977 26.9309C8.27723 26.9309 8.45352 26.7546 8.45352 26.5372C8.45352 26.3197 8.27723 26.1434 8.05977 26.1434C7.8423 26.1434 7.66602 26.3197 7.66602 26.5372C7.66602 26.7546 7.8423 26.9309 8.05977 26.9309Z" fill="#1E88E5"/>
<defs>
<linearGradient id="paint0_linear_1_4632" x1="36.5779" y1="21.447" x2="36.5779" y2="34.7973" gradientUnits="userSpaceOnUse">
<stop offset="0.337" stop-color="#616161"/>
<stop offset="1" stop-color="#616161" stop-opacity="0"/>
</linearGradient>
</defs>
</svg>
