<svg width="40" height="40" viewBox="0 0 40 40" fill="none" xmlns="http://www.w3.org/2000/svg">
<path d="M20.4663 32.0479C21.6397 31.9679 22.7975 31.7812 23.9397 31.4879C25.3452 31.9092 26.8283 32.0049 28.2763 31.7679C28.3338 31.7604 28.3917 31.756 28.4497 31.7546C28.9663 31.7546 29.6447 32.0512 30.633 32.6762V31.6496C30.6332 31.4707 30.6815 31.2952 30.7726 31.1413C30.8638 30.9874 30.9946 30.8607 31.1513 30.7746C31.5742 30.5387 31.9742 30.2642 32.3463 29.9546C33.7863 28.7496 34.5997 27.1446 34.5997 25.4446C34.5997 24.8812 34.5097 24.3229 34.3347 23.7896C34.768 22.9896 35.1213 22.1462 35.3797 21.2729C36.213 22.5062 36.663 23.9562 36.6663 25.4446C36.6663 27.7546 35.5763 29.9112 33.6913 31.4862C33.376 31.7486 33.0448 31.9912 32.6997 32.2129V34.6162C32.6997 35.4429 31.733 35.9162 31.0513 35.4262C30.4064 34.95 29.739 34.505 29.0513 34.0929C28.8536 33.9767 28.6481 33.8742 28.4363 33.7862C27.8697 33.8696 27.293 33.9118 26.7063 33.9129C24.353 33.9129 22.178 33.2162 20.4663 32.0479ZM8.02301 27.2412C5.04967 24.7562 3.33301 21.3629 3.33301 17.7329C3.33301 10.3096 10.4297 4.37624 19.0947 4.37624C27.7597 4.37624 34.858 10.3096 34.858 17.7312C34.858 25.1562 27.7597 31.0879 19.0947 31.0879C18.1202 31.0879 17.1602 31.014 16.2147 30.8662C15.8063 30.9612 14.1747 31.9179 11.823 33.6129C10.973 34.2279 9.76301 33.6346 9.76301 32.5996V28.4996C9.15374 28.1228 8.57226 27.7028 8.02301 27.2429M16.273 28.3396C16.343 28.3396 16.4152 28.3451 16.4897 28.3562C17.3506 28.499 18.2219 28.5704 19.0947 28.5696C26.4147 28.5696 32.273 23.6712 32.273 17.7329C32.273 11.7946 26.4147 6.8979 19.0947 6.8979C11.778 6.8979 5.91634 11.7962 5.91634 17.7329C5.91634 20.6046 7.28467 23.3079 9.70467 25.3312C10.3158 25.8401 10.9802 26.2962 11.698 26.6996C12.0997 26.9229 12.348 27.3412 12.348 27.7912V30.1562C14.208 28.9229 15.4313 28.3396 16.2713 28.3396" fill="url(#paint0_linear_1_4715)"/>
<path d="M12.7083 19.9994C13.2609 19.9994 13.7908 19.78 14.1815 19.3893C14.5722 18.9986 14.7917 18.4686 14.7917 17.9161C14.7917 17.3636 14.5722 16.8337 14.1815 16.443C13.7908 16.0523 13.2609 15.8328 12.7083 15.8328C12.1558 15.8328 11.6259 16.0523 11.2352 16.443C10.8445 16.8337 10.625 17.3636 10.625 17.9161C10.625 18.4686 10.8445 18.9986 11.2352 19.3893C11.6259 19.78 12.1558 19.9994 12.7083 19.9994Z" fill="url(#paint1_linear_1_4715)"/>
<path d="M19.4779 19.9995C20.0304 19.9995 20.5603 19.78 20.951 19.3893C21.3417 18.9986 21.5612 18.4687 21.5612 17.9162C21.5612 17.3636 21.3417 16.8337 20.951 16.443C20.5603 16.0523 20.0304 15.8328 19.4779 15.8328C18.9253 15.8328 18.3954 16.0523 18.0047 16.443C17.614 16.8337 17.3945 17.3636 17.3945 17.9162C17.3945 18.4687 17.614 18.9986 18.0047 19.3893C18.3954 19.78 18.9253 19.9995 19.4779 19.9995Z" fill="url(#paint2_linear_1_4715)"/>
<path d="M26.2493 20.0012C26.8019 20.0012 27.3318 19.7817 27.7225 19.391C28.1132 19.0003 28.3327 18.4704 28.3327 17.9178C28.3327 17.3653 28.1132 16.8354 27.7225 16.4447C27.3318 16.054 26.8019 15.8345 26.2493 15.8345C25.6968 15.8345 25.1669 16.054 24.7762 16.4447C24.3855 16.8354 24.166 17.3653 24.166 17.9178C24.166 18.4704 24.3855 19.0003 24.7762 19.391C25.1669 19.7817 25.6968 20.0012 26.2493 20.0012Z" fill="url(#paint3_linear_1_4715)"/>
<defs>
<linearGradient id="paint0_linear_1_4715" x1="19.9997" y1="4.37457" x2="19.9997" y2="35.6246" gradientUnits="userSpaceOnUse">
<stop stop-color="#1BC9FA"/>
<stop offset="1" stop-color="#1778F0"/>
</linearGradient>
<linearGradient id="paint1_linear_1_4715" x1="20" y1="4.37445" x2="20" y2="35.6244" gradientUnits="userSpaceOnUse">
<stop stop-color="#1BC9FA"/>
<stop offset="1" stop-color="#1778F0"/>
</linearGradient>
<linearGradient id="paint2_linear_1_4715" x1="19.9995" y1="4.37449" x2="19.9995" y2="35.6245" gradientUnits="userSpaceOnUse">
<stop stop-color="#1BC9FA"/>
<stop offset="1" stop-color="#1778F0"/>
</linearGradient>
<linearGradient id="paint3_linear_1_4715" x1="19.9993" y1="4.37449" x2="19.9993" y2="35.6245" gradientUnits="userSpaceOnUse">
<stop stop-color="#1BC9FA"/>
<stop offset="1" stop-color="#1778F0"/>
</linearGradient>
</defs>
</svg>
