<svg width="40" height="40" viewBox="0 0 40 40" fill="none" xmlns="http://www.w3.org/2000/svg">
<path d="M16.0938 35.1372C19.7531 31.5778 25.4437 25.9497 26.6625 24.6778C28.1781 23.0997 27.725 21.8122 27.0813 20.3934C26.8719 19.9278 23.4344 12.1653 21.225 7.15594C21.3156 7.11219 22.1562 6.51844 22.3625 6.42781C23.0187 6.13406 23.45 6.62781 23.7406 7.24031C23.9531 7.69344 28.9 21.9216 30.1062 25.1528C30.3031 25.6778 30.775 26.3653 30.5094 26.9434C30.2125 27.5903 29.0125 27.9934 28.4375 28.3466C27.7094 28.7903 26.9625 29.2028 26.2094 29.5997C24.7219 30.3841 23.2062 31.1184 21.75 31.9591C20 32.9684 18.2281 33.9247 16.4688 34.9122C16.3469 34.9841 16.2219 35.0622 16.0938 35.1372Z" fill="white"/>
<path d="M34.6625 31.5935C34.4219 31.6966 34.1594 31.7685 33.9969 31.831C30.6313 33.1216 27.1219 33.9685 23.65 34.9247C21.7094 35.4591 19.775 36.0279 17.8469 36.6029C17.5719 36.6872 17.2125 36.8029 16.8125 36.9341C18.4656 36.0185 20.1281 35.1216 21.7625 34.1747C23 33.4591 24.2656 32.8029 25.5281 32.1341C27.0406 31.3341 28.5469 30.5185 29.9813 29.5841C30.6531 29.1435 31.5594 28.9279 32.075 28.2747C32.6062 27.606 32.575 26.6341 32.3375 25.856C31.2031 22.1935 30.0625 18.5279 28.6313 14.9716C27.9531 13.281 27.2719 11.5904 26.7531 9.8435C26.6719 9.57475 26.5875 9.27475 26.5031 8.96225C27.8937 8.17162 27.7219 8.70287 28.3562 10.1529C29.4219 12.5872 30.4062 14.9997 31.2063 17.5341C31.4469 18.2872 31.6781 19.0372 31.9125 19.7904C32.55 21.8341 33.1906 23.8779 33.8281 25.9216C34.1219 26.8685 34.4187 27.8185 34.7188 28.7654C34.975 29.6122 35.825 31.0997 34.6625 31.5935Z" fill="white"/>
<path d="M5.37808 12.5497C4.83121 13.209 3.60309 14.6872 3.47809 14.8372C2.53434 15.9559 2.48746 17.2309 2.64371 18.084C2.93121 19.6653 6.60621 33.434 8.71246 37.8965C8.93746 38.3778 9.20308 38.7059 9.49683 38.9215C11.175 41.1247 16.5 38.9715 18.3687 38.4684C21.0968 37.7309 23.8531 37.0747 26.5687 36.2778C29.2937 35.4778 31.9562 34.559 34.6562 33.6872C35.5093 33.4122 36.5 33.0778 37.0218 32.2934C37.6656 31.3278 37.4343 29.984 37.1218 28.8434C36.4656 26.4653 35.5437 24.1747 34.7187 21.8528C33.6406 18.8184 32.7437 15.7184 31.5093 12.7403C31.1218 11.8028 30.7218 10.8747 30.3062 9.94967C29.975 9.21217 29.7843 8.40592 29.3937 7.69654C28.7875 6.60904 28.2281 6.43717 27.05 6.87154C26.7593 6.98092 26.2562 7.20904 25.9562 7.02779C25.7281 6.89029 25.6875 6.49967 25.6062 6.26842C25.4468 5.81529 25.2562 5.27154 24.9812 4.87154C24.8781 4.72154 24.7656 4.54654 24.65 4.40904C24.4937 4.22467 23.5437 3.78092 21.9718 4.44654C21.5906 4.60904 16.9375 7.40904 16.9375 7.40904L5.37808 12.5497ZM16.0937 35.1372C11.4906 27.8497 13.2156 15.4278 21.2281 7.15592C21.3187 7.11217 22.1593 6.51842 22.3656 6.42779C23.0218 6.13404 23.4531 6.62779 23.7437 7.24029C23.9562 7.69342 28.9031 21.9215 30.1093 25.1528C30.3062 25.6778 30.7781 26.3653 30.5125 26.9434C30.2156 27.5903 29.0156 27.9934 28.4406 28.3465C27.7125 28.7903 26.9656 29.2028 26.2125 29.5997C24.725 30.384 23.2093 31.1184 21.7531 31.959C20.0031 32.9684 18.2312 33.9247 16.4718 34.9122C16.3468 34.984 16.2218 35.0622 16.0937 35.1372ZM34.6625 31.5934C34.4218 31.6965 34.1593 31.7684 33.9968 31.8309C30.6312 33.1215 27.1218 33.9684 23.65 34.9247C21.7093 35.459 19.775 36.0278 17.8468 36.6028C17.5718 36.6872 17.2125 36.8028 16.8125 36.934C18.4656 36.0184 20.1281 35.1215 21.7625 34.1747C23 33.459 24.2656 32.8028 25.5281 32.134C27.0406 31.334 28.5468 30.5184 29.9812 29.584C30.6531 29.1434 31.5593 28.9278 32.075 28.2747C32.6062 27.6059 32.575 26.634 32.3375 25.8559C31.2031 22.1934 30.0625 18.5278 28.6312 14.9715C27.9531 13.2809 27.2718 11.5903 26.7531 9.84342C26.6718 9.57467 26.5875 9.27467 26.5031 8.96217C27.8937 8.17154 27.7218 8.70279 28.3562 10.1528C29.4218 12.5872 30.4062 14.9997 31.2062 17.534C31.4468 18.2872 31.6781 19.0372 31.9125 19.7903C32.55 21.834 33.1906 23.8778 33.8281 25.9215C34.1218 26.8684 34.4187 27.8184 34.7187 28.7653C34.975 29.6122 35.825 31.0997 34.6625 31.5934Z" fill="#2F2F2F"/>
<path d="M14.0842 36.9593L17.1529 34.1061C20.7654 30.578 25.5561 25.8343 26.6623 24.6811C28.1779 23.103 27.7248 21.8155 27.0811 20.3968C26.9436 20.0905 19.0561 2.13739 18.8654 1.73426C18.2748 0.496762 17.4873 -0.0688633 16.7248 0.156137C16.4686 0.231137 16.2311 0.340512 16.0061 0.474887C15.6373 0.696762 14.8654 1.39364 14.1623 2.06864C13.7029 2.50614 8.34355 8.97176 5.37793 12.5499C5.37793 12.5499 12.9217 35.7999 13.1779 36.6749C13.4342 37.553 14.0842 36.9593 14.0842 36.9593Z" fill="#FCC21B"/>
<path d="M15.7186 11.0217C15.8873 10.881 16.0748 10.7435 16.2342 10.5904C16.4779 10.3529 16.9404 9.94978 16.8967 9.58103C16.8748 9.37478 16.7686 9.21228 16.6061 9.12791C16.5342 9.09041 16.4467 9.06854 16.3498 9.06541C15.7686 9.05604 15.1373 9.57479 14.7311 9.93104C14.4498 10.1748 14.1311 10.381 13.8404 10.6092C13.2248 11.0935 12.7092 11.706 12.1279 12.2342C11.5936 12.7248 11.1779 13.3217 10.7029 13.8623C10.2342 14.3935 9.70919 14.8654 9.26231 15.4185C9.09981 15.6185 8.93106 15.781 8.96544 16.0529C8.99981 16.3217 9.20919 16.6467 9.45919 16.7592C9.85606 16.9373 10.2061 16.4248 10.4498 16.2029C12.2936 14.5435 13.8061 12.6154 15.7186 11.0217ZM17.3498 12.0342C16.8279 12.281 16.2686 12.8935 16.0467 13.1123C15.2936 13.8529 14.3592 14.4998 13.6654 15.2779C13.2467 15.7467 12.8217 16.2123 12.3529 16.631C11.8186 17.106 11.1279 17.5779 10.7529 18.1967C10.5154 18.5842 10.4373 19.3279 10.9998 19.4873C11.7061 19.6904 12.0748 18.656 12.5061 18.281C13.1436 17.7248 13.8592 17.256 14.4654 16.6592C15.1811 15.9498 15.8404 15.1873 16.5561 14.4748C16.9498 14.0842 18.3623 13.256 18.3592 12.6873C18.3592 12.4467 18.2842 12.2967 18.1279 12.1123C17.9311 11.8748 17.6467 11.8967 17.3498 12.0342Z" fill="#2F2F2F"/>
</svg>
