<svg width="32" height="32" viewBox="0 0 32 32" fill="none" xmlns="http://www.w3.org/2000/svg">
<path d="M16 20C17.0609 20 18.0783 19.5786 18.8284 18.8284C19.5786 18.0783 20 17.0609 20 16C20 14.9391 19.5786 13.9217 18.8284 13.1716C18.0783 12.4214 17.0609 12 16 12C14.9391 12 13.9217 12.4214 13.1716 13.1716C12.4214 13.9217 12 14.9391 12 16C12 17.0609 12.4214 18.0783 13.1716 18.8284C13.9217 19.5786 14.9391 20 16 20Z" stroke="#344054" stroke-width="1.28" stroke-linecap="round" stroke-linejoin="round"/>
<path d="M26.6669 13.3332H25.8797C25.6041 13.3324 25.3355 13.2461 25.1111 13.0862C24.8866 12.9263 24.7173 12.7006 24.6266 12.4404C24.5076 12.1907 24.4694 11.9102 24.5173 11.6378C24.5651 11.3654 24.6966 11.1147 24.8934 10.9204L25.44 10.3732C25.5652 10.2494 25.6646 10.102 25.7324 9.93952C25.8003 9.77705 25.8352 9.60272 25.8352 9.42665C25.8352 9.25058 25.8003 9.07626 25.7324 8.91378C25.6646 8.7513 25.5652 8.60389 25.44 8.48009L23.5469 6.57289C23.4229 6.44791 23.2754 6.34871 23.1129 6.28101C22.9504 6.21331 22.7761 6.17846 22.6 6.17846C22.4239 6.17846 22.2496 6.21331 22.0871 6.28101C21.9246 6.34871 21.7771 6.44791 21.6531 6.57289L21.1066 7.12009C20.9123 7.31696 20.6616 7.44844 20.3892 7.49627C20.1168 7.54409 19.8363 7.50589 19.5866 7.38697C19.319 7.30001 19.0859 7.13054 18.9207 6.90288C18.7555 6.67522 18.6666 6.40107 18.6669 6.11977V5.33385C18.6669 5.15873 18.6324 4.98532 18.5653 4.82354C18.4983 4.66176 18.4001 4.51477 18.2762 4.39097C18.1523 4.26717 18.0053 4.16898 17.8435 4.10203C17.6817 4.03507 17.5082 4.00065 17.3331 4.00073H14.6669C14.4918 4.00065 14.3183 4.03507 14.1565 4.10203C13.9947 4.16898 13.8477 4.26717 13.7238 4.39097C13.5999 4.51477 13.5017 4.66176 13.4347 4.82354C13.3676 4.98532 13.3331 5.15873 13.3331 5.33385V6.12105C13.3323 6.39665 13.246 6.66521 13.0861 6.88966C12.9262 7.11412 12.7005 7.28341 12.4403 7.37417C12.1906 7.49309 11.9101 7.53129 11.6377 7.48347C11.3653 7.43564 11.1146 7.30416 10.9203 7.10729L10.3731 6.56073C10.2493 6.43554 10.1019 6.33614 9.93943 6.26831C9.77695 6.20047 9.60263 6.16554 9.42656 6.16554C9.25049 6.16554 9.07617 6.20047 8.91369 6.26831C8.75121 6.33614 8.6038 6.43554 8.48 6.56073L6.5728 8.45385C6.44782 8.57784 6.34861 8.72534 6.28092 8.88786C6.21322 9.05037 6.17837 9.22468 6.17837 9.40073C6.17837 9.57678 6.21322 9.75109 6.28092 9.91361C6.34861 10.0761 6.44782 10.2236 6.5728 10.3476L7.12 10.8942C7.31687 11.0884 7.44835 11.3392 7.49617 11.6116C7.544 11.884 7.5058 12.1645 7.38688 12.4142C7.29619 12.6746 7.12685 12.9005 6.90226 13.0605C6.67766 13.2206 6.4089 13.3069 6.13312 13.3076H5.33312C4.97955 13.3076 4.64047 13.4481 4.39046 13.6981C4.14045 13.9481 4 14.2872 4 14.6407V17.3076C4 17.6612 4.14045 18.0003 4.39046 18.2503C4.64047 18.5003 4.97955 18.6407 5.33312 18.6407H6.12032C6.39599 18.6416 6.66461 18.728 6.88908 18.888C7.11354 19.048 7.28279 19.2738 7.37344 19.5342C7.49236 19.7839 7.53056 20.0644 7.48273 20.3368C7.43491 20.6092 7.30343 20.8599 7.10656 21.0542L6.56 21.6007C6.43504 21.7247 6.33585 21.8721 6.26816 22.0346C6.20047 22.197 6.16562 22.3713 6.16562 22.5473C6.16562 22.7233 6.20047 22.8975 6.26816 23.06C6.33585 23.2225 6.43504 23.3699 6.56 23.4939L8.44032 25.3742C8.5643 25.4991 8.71176 25.5982 8.87422 25.6658C9.03667 25.7335 9.21091 25.7683 9.38688 25.7683C9.56285 25.7683 9.73709 25.7335 9.89954 25.6658C10.062 25.5982 10.2095 25.4991 10.3334 25.3742L10.88 24.8276C11.0742 24.6307 11.325 24.4993 11.5974 24.4514C11.8698 24.4036 12.1503 24.4418 12.4 24.5607C12.6603 24.6514 12.8861 24.8206 13.0462 25.0451C13.2062 25.2696 13.2926 25.5382 13.2934 25.8139V26.6676C13.2934 27.0212 13.4339 27.3603 13.6839 27.6103C13.9339 27.8603 14.273 28.0007 14.6266 28.0007H17.2934C17.647 28.0007 17.9861 27.8603 18.2361 27.6103C18.4861 27.3603 18.6266 27.0212 18.6266 26.6676V25.8804C18.6274 25.6047 18.7138 25.3361 18.8738 25.1117C19.0339 24.8872 19.2597 24.7179 19.52 24.6273C19.7697 24.5084 20.0502 24.4702 20.3226 24.518C20.595 24.5658 20.8458 24.6973 21.04 24.8942L21.5866 25.4407C21.7104 25.566 21.8578 25.6655 22.0204 25.7334C22.1829 25.8013 22.3573 25.8362 22.5334 25.8362C22.7096 25.8362 22.884 25.8013 23.0465 25.7334C23.2091 25.6655 23.3565 25.566 23.4803 25.4407L25.36 23.5611C25.4853 23.4372 25.5848 23.2898 25.6527 23.1273C25.7206 22.9647 25.7555 22.7903 25.7555 22.6142C25.7555 22.438 25.7206 22.2636 25.6527 22.1011C25.5848 21.9386 25.4853 21.7911 25.36 21.6673L24.8134 21.1201C24.6166 20.9258 24.4851 20.6751 24.4373 20.4027C24.3894 20.1303 24.4276 19.8498 24.5466 19.6001C24.6372 19.3396 24.8066 19.1138 25.0312 18.9537C25.2558 18.7937 25.5245 18.7074 25.8003 18.7067H26.6669C27.0204 18.7067 27.3595 18.5662 27.6095 18.3162C27.8595 18.0662 28 17.7271 28 17.3735V14.6663C28 14.3128 27.8595 13.9737 27.6095 13.7237C27.3595 13.4737 27.0204 13.3332 26.6669 13.3332Z" stroke="#306CFE" stroke-width="1.28" stroke-linecap="round" stroke-linejoin="round"/>
</svg>
