<svg xmlns="http://www.w3.org/2000/svg" width="60" height="60" viewBox="0 0 60 60">
  <g>
    <path d="M40,0H10C7.794,0,6,1.794,6,4v52c0,2.206,1.794,4,4,4h40c2.206,0,4-1.794,4-4V14L40,0z" fill="#E9E9E0"/>
    <path d="M40,0v14h14L40,0z" fill="#D9D7CA"/>
    <rect x="6" y="23" width="48" height="19" fill="#F15642"/>
    <path d="M20.807,38.361c0,0-0.652,0.902-1.63,0.902c-1.171,0-1.666-1.035-1.666-2.232
      c0-1.189,0.497-2.252,1.666-2.252c1.025,0,1.527,0.842,1.527,0.842l0.739-0.842c0,0-0.787-1.187-2.321-1.187
      c-1.583,0-2.861,1.206-2.861,3.421c0,2.133,1.219,3.439,2.861,3.439c0.996,0,1.63-0.493,2.045-0.939s0.684-0.705,0.684-0.705
      L20.807,38.361z" fill="#FFFFFF"/>
    <path d="M25.702,37.805c0,0,1.234,1.078,2.677,1.078c0.625,0,1.234-0.243,1.234-0.843
      c0-1.335-4.713-1.189-4.713-3.94c0-1.48,1.303-2.507,3.088-2.507c1.839,0,2.723,0.97,2.723,0.97l-0.625,1.17
      c0,0-0.755-0.738-2.133-0.738c-0.625,0-1.207,0.278-1.207,0.826c0,1.361,4.713,0.988,4.713,3.959c0,1.333-1.025,2.489-3.123,2.489
      c-1.962,0-3.193-1.152-3.193-1.152L25.702,37.805z" fill="#FFFFFF"/>
    <path d="M37.352,32.077h1.564V40h-1.564V32.077z" fill="#FFFFFF"/>
  </g>
</svg>
